<?xml version="1.0" encoding="UTF-8" standalone="no"?>
<svg width="60px" height="60px" viewBox="0 0 60 60" version="1.1" xmlns="http://www.w3.org/2000/svg" xmlns:xlink="http://www.w3.org/1999/xlink" xmlns:sketch="http://www.bohemiancoding.com/sketch/ns">
    <!-- Generator: Sketch 3.3.3 (12072) - http://www.bohemiancoding.com/sketch -->
    <title>logo</title>
    <desc>Created with Sketch.</desc>
    <defs></defs>
    <g id="Website" stroke="none" stroke-width="1" fill="none" fill-rule="evenodd" sketch:type="MSPage">
        <g id="pg-1---Hero" sketch:type="MSArtboardGroup" transform="translate(-120.000000, -40.000000)" fill-opacity="0.9" fill="#FFFFFF">
            <g id="Primary-Navigation-Light" sketch:type="MSLayerGroup" transform="translate(120.000000, 40.000000)">
                <g id="logo" sketch:type="MSShapeGroup">
                    <path d="M11.9483678,22.8117936 L19.4022721,22.8117936 L19.4022721,42.6848518 L23.2357086,42.6848518 L23.2357086,22.8117936 L30.9025816,22.8117936 L30.9025816,19.2177298 L11.9483678,19.2177298 L11.9483678,22.8117936" id="Fill-1"></path>
                    <path d="M46.811835,31.2468026 L46.8116169,31.2465907 C46.1739446,30.3839013 45.3216794,29.7322234 44.2703051,29.3015143 C45.002407,28.8576699 45.5820695,28.296032 46.0001331,27.6242275 C46.5769605,26.6975568 46.8696268,25.6971591 46.8696268,24.6507881 C46.8696268,22.7976585 46.1988059,21.259563 44.8757013,20.0792971 C43.5628465,18.9087768 41.7867851,18.3151482 39.5970218,18.3151482 C37.6122558,18.3151482 35.9186295,18.8530579 34.5634668,19.9138354 C33.1899851,20.9888073 32.3732673,22.5610121 32.1357758,24.5870186 L32.080383,25.0588283 L36.0564575,25.0588283 L36.1011643,24.6836262 C36.3556662,22.5387669 37.5533736,21.4512953 39.6609199,21.4512953 C40.6950657,21.4512953 41.5002251,21.7197205 42.0545901,22.248944 C42.6117901,22.7815572 42.8826481,23.5378934 42.8826481,24.5615955 C42.8826481,26.9244576 41.6306383,28.0248527 38.942121,28.0248527 L37.8017692,28.0248527 L37.8017692,31.2027359 L39.4053276,31.2027359 C40.9458602,31.2027359 42.1239402,31.5544217 42.9055468,32.2482595 C43.6860629,32.9416736 44.0659621,33.9179194 44.0659621,35.2331393 C44.0659621,36.5314105 43.6952224,37.5540534 42.9293177,38.359329 C42.1723544,39.1554946 41.1802986,39.542349 39.8903424,39.542349 C38.5761791,39.542349 37.5658043,39.1792228 36.8760103,38.4633517 C36.1901419,37.751294 35.8390295,36.8523767 35.8390295,35.8636313 L35.8390295,35.4399136 L31.8051632,35.4399136 L31.8300246,35.8865121 C31.9436454,37.9235352 32.7461879,39.5851445 34.2156257,40.8262138 C35.6761221,42.0594443 37.583469,42.6848518 39.8846723,42.6848518 C42.1806416,42.6848518 44.1337857,41.98487 45.6893659,40.6039738 C47.2567227,39.2129084 48.0516322,37.3847781 48.0516322,35.1710646 C48.0516322,33.6808493 47.6346591,32.3607566 46.811835,31.2468026" id="Fill-2"></path>
                    <path d="M30,0 C13.4578824,0 0,13.4578824 0,30 C0,46.5421176 13.4578824,60 30,60 C46.5421176,60 60,46.5421176 60,30 C60,13.4578824 46.5421176,0 30,0 L30,0 Z M30,56.4705882 C15.4042353,56.4705882 3.52941176,44.5957647 3.52941176,30 C3.52941176,15.404 15.4042353,3.52941176 30,3.52941176 C44.5957647,3.52941176 56.4705882,15.404 56.4705882,30 C56.4705882,44.5957647 44.5957647,56.4705882 30,56.4705882 L30,56.4705882 Z" id="Fill-3"></path>
                </g>
            </g>
        </g>
    </g>
</svg>