<?xml version="1.0" encoding="UTF-8" standalone="no"?>
<svg width="16px" height="20px" viewBox="0 0 16 20" version="1.1" xmlns="http://www.w3.org/2000/svg" xmlns:xlink="http://www.w3.org/1999/xlink" xmlns:sketch="http://www.bohemiancoding.com/sketch/ns">
    <!-- Generator: Sketch 3.3.3 (12072) - http://www.bohemiancoding.com/sketch -->
    <title>Shape</title>
    <desc>Created with Sketch.</desc>
    <defs></defs>
    <g id="Website" stroke="none" stroke-width="1" fill="none" fill-rule="evenodd" sketch:type="MSPage">
        <g id="pg-1---Hero" sketch:type="MSArtboardGroup" transform="translate(-953.000000, -61.000000)" fill="#FFFFFF">
            <g id="Primary-Navigation-Light" sketch:type="MSLayerGroup" transform="translate(120.000000, 40.000000)">
                <path d="M848.072197,34.2061136 L847.525854,33.6390316 C847.525854,33.6390316 847.525854,33.6388051 847.525636,33.6388051 L847.525418,33.6385787 L846.424443,32.4960354 C847.466944,31.261545 848.036632,29.6957285 848.034886,28.0372855 C848.032923,26.2271074 847.351959,24.5242762 846.117235,23.243133 C844.880765,21.9597251 843.237593,21.2526844 841.490782,21.2526844 C839.895612,21.2526844 838.389898,21.8439987 837.20252,22.9242626 L836.101545,21.7814928 C836.101545,21.7814928 836.101545,21.7812664 836.101327,21.7812664 L836.101109,21.7810399 L835.476437,21.1326551 C835.306251,20.9557816 835.029589,20.9557816 834.859402,21.1326551 C834.688998,21.3095285 834.688998,21.59624 834.859402,21.7733399 L835.183848,22.1101014 C833.769991,23.733215 832.997388,25.8151577 833.000007,28.0216591 C833.002407,30.3789898 833.889558,32.5965882 835.497602,34.2656753 C837.020552,35.8464389 839.01806,36.7548118 841.155209,36.848797 L841.155209,40.0941183 L837.664206,40.0941183 C837.423326,40.0941183 837.22783,40.2970358 837.22783,40.5470591 C837.22783,40.7970825 837.423326,41 837.664206,41 L845.300776,41 C845.541655,41 845.737151,40.7970825 845.737151,40.5470591 C845.737151,40.2970358 845.541655,40.0941183 845.300776,40.0941183 L842.02796,40.0941183 L842.02796,36.8413235 C843.96154,36.7246912 845.772062,35.9397447 847.209264,34.5913398 L847.455162,34.8465719 C847.540255,34.9348954 847.651967,34.9790571 847.763679,34.9790571 C847.875391,34.9790571 847.987103,34.9348954 848.072197,34.8465719 C848.242601,34.6696985 848.242601,34.382987 848.072197,34.2061136 L848.072197,34.2061136 Z M845.123389,23.526674 L843.700805,25.0032612 C843.046897,24.3795616 842.351096,23.8548296 841.654641,23.4505799 C841.867592,23.0307037 842.039742,22.611507 842.167818,22.2015955 C843.258103,22.3354395 844.277912,22.7917774 845.123389,23.526674 L845.123389,23.526674 Z M847.12068,27.3422478 C846.726633,27.4749594 846.32364,27.6531917 845.919993,27.8735474 C845.507182,27.1073979 844.962367,26.3496279 844.319586,25.6419078 L845.748061,24.1592059 C846.511936,25.0582935 846.985622,26.1602986 847.12068,27.3422478 L847.12068,27.3422478 Z M837.272777,24.2122 L838.804018,25.8015694 C838.372661,26.2189544 837.919049,26.5921777 837.458891,26.9092363 C837.021425,25.7993047 836.969278,24.8313701 837.272777,24.2122 L837.272777,24.2122 Z M845.733879,29.6760256 C845.987195,30.5150985 845.998977,31.2443333 845.781662,31.7629506 L844.271803,30.1960017 C844.682868,29.8048872 845.112698,29.4534051 845.548637,29.1528789 C845.618457,29.328167 845.681732,29.5030021 845.733879,29.6760256 L845.733879,29.6760256 Z M843.65455,29.5548639 L842.102144,27.9435268 L843.702551,26.2823662 C844.294494,26.9368657 844.792399,27.6332623 845.166809,28.332603 C844.64774,28.681141 844.137399,29.0926377 843.65455,29.5548639 L843.65455,29.5548639 Z M841.484891,27.3030684 L840.035906,25.7990783 C840.480136,25.2990316 840.875711,24.771129 841.211065,24.2337147 C841.844682,24.5999173 842.483754,25.0782229 843.08268,25.6446254 L841.484891,27.3030684 L841.484891,27.3030684 Z M839.418435,25.1581669 L837.906394,23.5887269 C838.136146,23.4836446 838.408662,23.4292917 838.723725,23.4292917 C839.235375,23.4292917 839.816628,23.5721945 840.422971,23.8335414 C840.133436,24.2858029 839.795245,24.7319496 839.418435,25.1581669 L839.418435,25.1581669 Z M839.42149,26.4424808 L840.867856,27.9435268 L839.207011,29.6674197 C838.63405,29.0188084 838.178038,28.3618177 837.83941,27.7301916 C838.383571,27.3651213 838.918131,26.9316569 839.42149,26.4424808 L839.42149,26.4424808 Z M841.484891,28.5842116 L843.034678,30.1928311 C842.565575,30.7128072 842.149709,31.2647156 841.798863,31.8265888 C841.127063,31.4384184 840.448717,30.9247835 839.819028,30.3130869 L841.484891,28.5842116 L841.484891,28.5842116 Z M843.652368,30.8337424 L845.188846,32.4285472 C844.942512,32.5621647 844.641413,32.6312382 844.286421,32.6312382 C843.774771,32.6312382 843.193519,32.4883354 842.587175,32.227215 C842.891984,31.7502682 843.250902,31.2805686 843.652368,30.8337424 L843.652368,30.8337424 Z M846.566919,29.4051669 C846.495136,29.1675994 846.403715,28.9270878 846.303567,28.6861233 C846.590266,28.5287264 846.875873,28.3953353 847.156681,28.2875354 C847.13028,28.964229 846.993913,29.6200874 846.756525,30.2333693 C846.715723,29.967493 846.653104,29.6911991 846.566919,29.4051669 L846.566919,29.4051669 Z M840.873311,23.0490478 C840.361006,22.8189539 839.857647,22.6586128 839.38047,22.5804805 C839.971759,22.3334013 840.604503,22.1916308 841.257103,22.1642279 C841.153246,22.4554688 841.024951,22.7516922 840.873311,23.0490478 L840.873311,23.0490478 Z M836.254931,25.8307841 C836.329115,26.322225 836.479664,26.8431069 836.701561,27.3768978 C836.417481,27.5327094 836.134492,27.6647417 835.856084,27.7718622 C835.882266,27.1105685 836.015143,26.4535778 836.254931,25.8307841 L836.254931,25.8307841 Z M837.088845,28.1876619 C837.472855,28.8999114 837.976214,29.6194079 838.588667,30.3094634 L837.166738,31.7853711 C836.443664,30.8874159 836.01907,29.8173431 835.892521,28.7171498 C836.285041,28.5846646 836.686506,28.4071117 837.088845,28.1876619 L837.088845,28.1876619 Z M839.202211,30.9535453 C839.886884,31.6227654 840.620868,32.1837326 841.355506,32.60995 C841.142554,33.0298262 840.970404,33.4490229 840.842328,33.8589344 C839.703606,33.7189757 838.642123,33.2270819 837.7757,32.4339825 L839.202211,30.9535453 L839.202211,30.9535453 Z M842.136836,33.0114821 C842.649141,33.241576 843.1525,33.4019171 843.629676,33.4800494 C843.038388,33.7269021 842.405861,33.8688991 841.753044,33.896302 C841.856901,33.6048346 841.985195,33.3088377 842.136836,33.0114821 L842.136836,33.0114821 Z M841.514783,35.9522006 C839.475818,35.9497094 837.558166,35.1233188 836.114636,33.6249904 C834.671106,32.1266621 833.874939,30.1362135 833.872539,28.0198473 C833.870357,26.0558957 834.553067,24.2026882 835.80241,22.7514657 L836.585704,23.5644945 C835.432145,24.9328289 834.899331,26.6721218 834.98857,28.3849176 C834.988351,28.4068853 834.990315,28.4288529 834.993152,28.4512735 C835.091118,30.0413224 835.723208,31.6035154 836.892694,32.8173969 C838.129164,34.1008048 839.772335,34.8078455 841.519146,34.8078455 C843.114099,34.8078455 844.62003,34.2165312 845.80719,33.1362673 L846.590484,33.9492961 C845.192991,35.2465187 843.410616,35.9585418 841.514783,35.9522006 L841.514783,35.9522006 Z" id="Shape" sketch:type="MSShapeGroup"></path>
            </g>
        </g>
    </g>
</svg>